<svg xmlns="http://www.w3.org/2000/svg" width="256" height="256"><rect width="256" height="256" fill="#fff"/><path fill="#4285F4" d="M231 130c0-8-1-16-3-23H129v43h58c-2 11-8 20-17 27v23h28c17-16 33-42 33-70z"/><path fill="#34A853" d="M129 232c23 0 43-8 57-21l-28-23c-8 5-19 8-29 8-22 0-41-15-48-35H52v22c14 29 45 49 77 49z"/><path fill="#FBBC04" d="M81 161c-4-11-5-23 0-35v-22H52c-15 30-15 66 0 96l29-22z"/><path fill="#EA4335" d="M129 72c13 0 25 4 34 12l26-25c-17-16-39-25-60-25-32 0-63 20-77 49l29 22c7-20 26-35 48-35z"/></svg>
