<svg xmlns="http://www.w3.org/2000/svg" width="256" height="256" viewBox="0 0 256 256"><rect width="256" height="256" rx="56" fill="#25D366"/><path fill="#FFF" d="M129.8 54c-40.1 0-72.6 32.5-72.6 72.6 0 12.8 3.3 25.5 9.6 36.7l-10.2 37.3 38.2-10c10.8 5.7 22.9 8.7 35 8.7 40.1 0 72.6-32.5 72.6-72.6S169.9 54 129.8 54zm41.3 94.3c-1.8 5.1-10.3 10-14.4 10.6-3.6.5-8.1.7-13.1-1.5-3-1.2-6.7-2.2-11.5-4.3-20.1-8.8-33.1-29.3-34.1-30.7-.9-1.2-8.1-10.7-8.1-20.5 0-9.8 5.1-14.6 6.9-16.7 1.8-2 4-2.5 5.3-2.5 1.4 0 2.7.1 3.8.1 1.2.1 2.9-.5 4.5 3.4 1.8 4.4 6.1 15 6.7 16.1.5 1.1.9 2.3.2 3.6-.7 1.2-1.1 1.8-2.1 2.9-.9 1-1.8 2.2-2.5 3-.8.8-1.6 1.7-.7 3.3.9 1.6 3.9 6.4 8.3 10.4 5.7 5.1 10.5 6.7 12.1 7.5 1.6.7 2.5.6 3.4-.4.9-1 3.9-4.5 4.9-6.1 1.1-1.6 2.1-1.3 3.4-.8 1.3.5 8.4 3.9 9.9 4.6 1.5.7 2.5 1.1 2.9 1.7.4.6.4 5.1-1.4 10.2z"/></svg>
